<mxfile host="app.diagrams.net" modified="2023-09-14T20:27:41.629Z" agent="Mozilla/5.0 (Windows NT 10.0; Win64; x64) AppleWebKit/537.36 (KHTML, like Gecko) Chrome/116.0.0.0 Safari/537.36" etag="lmJpbusa6IAvuPW_0zqL" version="21.3.2" type="device">
  <diagram name="Page-1" id="yKxgy69QZn2t67SPtGFR">
    <mxGraphModel dx="2163" dy="678" grid="1" gridSize="10" guides="1" tooltips="1" connect="1" arrows="1" fold="1" page="1" pageScale="1" pageWidth="850" pageHeight="1100" math="0" shadow="0">
      <root>
        <mxCell id="0" />
        <mxCell id="1" parent="0" />
        <mxCell id="YAelynTICEoAhlKQ4TrA-1" value="" style="rounded=0;whiteSpace=wrap;html=1;" parent="1" vertex="1">
          <mxGeometry x="60" y="50" width="120" height="60" as="geometry" />
        </mxCell>
        <mxCell id="YAelynTICEoAhlKQ4TrA-3" value="" style="rhombus;whiteSpace=wrap;html=1;" parent="1" vertex="1">
          <mxGeometry x="80" y="220" width="80" height="80" as="geometry" />
        </mxCell>
        <mxCell id="YAelynTICEoAhlKQ4TrA-4" value="" style="rounded=0;whiteSpace=wrap;html=1;" parent="1" vertex="1">
          <mxGeometry x="60" y="340" width="120" height="60" as="geometry" />
        </mxCell>
        <mxCell id="YAelynTICEoAhlKQ4TrA-7" value="LECTURER" style="text;html=1;strokeColor=none;fillColor=none;align=center;verticalAlign=middle;whiteSpace=wrap;rounded=0;" parent="1" vertex="1">
          <mxGeometry x="90" y="65" width="60" height="30" as="geometry" />
        </mxCell>
        <mxCell id="YAelynTICEoAhlKQ4TrA-8" value="COUSE" style="text;html=1;strokeColor=none;fillColor=none;align=center;verticalAlign=middle;whiteSpace=wrap;rounded=0;" parent="1" vertex="1">
          <mxGeometry x="90" y="355" width="60" height="30" as="geometry" />
        </mxCell>
        <mxCell id="YAelynTICEoAhlKQ4TrA-9" value="INCLUDE" style="text;html=1;strokeColor=none;fillColor=none;align=center;verticalAlign=middle;whiteSpace=wrap;rounded=0;" parent="1" vertex="1">
          <mxGeometry x="90" y="245" width="60" height="30" as="geometry" />
        </mxCell>
        <mxCell id="YAelynTICEoAhlKQ4TrA-10" value="" style="rounded=0;whiteSpace=wrap;html=1;" parent="1" vertex="1">
          <mxGeometry x="640" y="430" width="120" height="60" as="geometry" />
        </mxCell>
        <mxCell id="YAelynTICEoAhlKQ4TrA-11" value="" style="endArrow=none;html=1;rounded=0;exitX=0.5;exitY=0;exitDx=0;exitDy=0;entryX=0.5;entryY=1;entryDx=0;entryDy=0;" parent="1" target="YAelynTICEoAhlKQ4TrA-1" edge="1">
          <mxGeometry width="50" height="50" relative="1" as="geometry">
            <mxPoint x="120" y="220" as="sourcePoint" />
            <mxPoint x="310" y="260" as="targetPoint" />
          </mxGeometry>
        </mxCell>
        <mxCell id="YAelynTICEoAhlKQ4TrA-12" value="" style="endArrow=none;html=1;rounded=0;entryX=0.5;entryY=0;entryDx=0;entryDy=0;" parent="1" target="YAelynTICEoAhlKQ4TrA-4" edge="1">
          <mxGeometry width="50" height="50" relative="1" as="geometry">
            <mxPoint x="120" y="300" as="sourcePoint" />
            <mxPoint x="130" y="270" as="targetPoint" />
          </mxGeometry>
        </mxCell>
        <mxCell id="YAelynTICEoAhlKQ4TrA-18" value="" style="rhombus;whiteSpace=wrap;html=1;" parent="1" vertex="1">
          <mxGeometry x="395" y="490" width="80" height="80" as="geometry" />
        </mxCell>
        <mxCell id="YAelynTICEoAhlKQ4TrA-19" value="" style="endArrow=none;html=1;rounded=0;entryX=0.5;entryY=1;entryDx=0;entryDy=0;exitX=1;exitY=0.5;exitDx=0;exitDy=0;" parent="1" source="YAelynTICEoAhlKQ4TrA-18" target="YAelynTICEoAhlKQ4TrA-10" edge="1">
          <mxGeometry width="50" height="50" relative="1" as="geometry">
            <mxPoint x="360" y="320" as="sourcePoint" />
            <mxPoint x="410" y="270" as="targetPoint" />
            <Array as="points">
              <mxPoint x="580" y="530" />
              <mxPoint x="700" y="530" />
            </Array>
          </mxGeometry>
        </mxCell>
        <mxCell id="YAelynTICEoAhlKQ4TrA-20" value="" style="endArrow=none;html=1;rounded=0;entryX=0;entryY=0.5;entryDx=0;entryDy=0;exitX=0.5;exitY=1;exitDx=0;exitDy=0;" parent="1" source="YAelynTICEoAhlKQ4TrA-4" target="YAelynTICEoAhlKQ4TrA-18" edge="1">
          <mxGeometry width="50" height="50" relative="1" as="geometry">
            <mxPoint x="360" y="320" as="sourcePoint" />
            <mxPoint x="410" y="270" as="targetPoint" />
            <Array as="points">
              <mxPoint x="120" y="460" />
              <mxPoint x="120" y="530" />
            </Array>
          </mxGeometry>
        </mxCell>
        <mxCell id="YAelynTICEoAhlKQ4TrA-24" value="STUDENT" style="text;html=1;strokeColor=none;fillColor=none;align=center;verticalAlign=middle;whiteSpace=wrap;rounded=0;" parent="1" vertex="1">
          <mxGeometry x="670" y="445" width="60" height="30" as="geometry" />
        </mxCell>
        <mxCell id="YAelynTICEoAhlKQ4TrA-26" value="REGISTER" style="text;html=1;strokeColor=none;fillColor=none;align=center;verticalAlign=middle;whiteSpace=wrap;rounded=0;" parent="1" vertex="1">
          <mxGeometry x="405" y="515" width="60" height="30" as="geometry" />
        </mxCell>
        <mxCell id="YAelynTICEoAhlKQ4TrA-27" value="" style="rounded=0;whiteSpace=wrap;html=1;" parent="1" vertex="1">
          <mxGeometry x="640" y="180" width="120" height="60" as="geometry" />
        </mxCell>
        <mxCell id="YAelynTICEoAhlKQ4TrA-28" value="DEPARTMENT" style="text;html=1;strokeColor=none;fillColor=none;align=center;verticalAlign=middle;whiteSpace=wrap;rounded=0;" parent="1" vertex="1">
          <mxGeometry x="670" y="195" width="60" height="30" as="geometry" />
        </mxCell>
        <mxCell id="YAelynTICEoAhlKQ4TrA-29" value="" style="endArrow=none;html=1;rounded=0;entryX=0.5;entryY=1;entryDx=0;entryDy=0;" parent="1" target="YAelynTICEoAhlKQ4TrA-27" edge="1">
          <mxGeometry width="50" height="50" relative="1" as="geometry">
            <mxPoint x="700" y="290" as="sourcePoint" />
            <mxPoint x="640" y="410" as="targetPoint" />
          </mxGeometry>
        </mxCell>
        <mxCell id="YAelynTICEoAhlKQ4TrA-30" value="" style="rhombus;whiteSpace=wrap;html=1;" parent="1" vertex="1">
          <mxGeometry x="665" y="285" width="70" height="70" as="geometry" />
        </mxCell>
        <mxCell id="YAelynTICEoAhlKQ4TrA-31" value="" style="endArrow=none;html=1;rounded=0;entryX=0.5;entryY=1;entryDx=0;entryDy=0;" parent="1" target="YAelynTICEoAhlKQ4TrA-30" edge="1">
          <mxGeometry width="50" height="50" relative="1" as="geometry">
            <mxPoint x="700" y="430" as="sourcePoint" />
            <mxPoint x="650" y="280" as="targetPoint" />
          </mxGeometry>
        </mxCell>
        <mxCell id="YAelynTICEoAhlKQ4TrA-32" value="" style="rhombus;whiteSpace=wrap;html=1;" parent="1" vertex="1">
          <mxGeometry x="395" y="40" width="80" height="80" as="geometry" />
        </mxCell>
        <mxCell id="YAelynTICEoAhlKQ4TrA-33" value="" style="endArrow=none;html=1;rounded=0;exitX=1;exitY=0.5;exitDx=0;exitDy=0;entryX=0.5;entryY=0;entryDx=0;entryDy=0;" parent="1" source="YAelynTICEoAhlKQ4TrA-32" target="YAelynTICEoAhlKQ4TrA-27" edge="1">
          <mxGeometry width="50" height="50" relative="1" as="geometry">
            <mxPoint x="520" y="300" as="sourcePoint" />
            <mxPoint x="570" y="250" as="targetPoint" />
            <Array as="points">
              <mxPoint x="700" y="80" />
            </Array>
          </mxGeometry>
        </mxCell>
        <mxCell id="YAelynTICEoAhlKQ4TrA-34" value="" style="endArrow=none;html=1;rounded=0;entryX=1;entryY=0.5;entryDx=0;entryDy=0;exitX=0;exitY=0.5;exitDx=0;exitDy=0;" parent="1" source="YAelynTICEoAhlKQ4TrA-32" target="YAelynTICEoAhlKQ4TrA-1" edge="1">
          <mxGeometry width="50" height="50" relative="1" as="geometry">
            <mxPoint x="520" y="260" as="sourcePoint" />
            <mxPoint x="570" y="210" as="targetPoint" />
          </mxGeometry>
        </mxCell>
        <mxCell id="YAelynTICEoAhlKQ4TrA-35" value="" style="rhombus;whiteSpace=wrap;html=1;" parent="1" vertex="1">
          <mxGeometry x="395" y="600" width="80" height="80" as="geometry" />
        </mxCell>
        <mxCell id="YAelynTICEoAhlKQ4TrA-36" value="" style="endArrow=none;html=1;rounded=0;entryX=1;entryY=0.5;entryDx=0;entryDy=0;exitX=1;exitY=0.5;exitDx=0;exitDy=0;" parent="1" source="YAelynTICEoAhlKQ4TrA-35" target="YAelynTICEoAhlKQ4TrA-27" edge="1">
          <mxGeometry width="50" height="50" relative="1" as="geometry">
            <mxPoint x="520" y="300" as="sourcePoint" />
            <mxPoint x="570" y="250" as="targetPoint" />
            <Array as="points">
              <mxPoint x="850" y="640" />
              <mxPoint x="850" y="212" />
            </Array>
          </mxGeometry>
        </mxCell>
        <mxCell id="YAelynTICEoAhlKQ4TrA-37" value="" style="endArrow=none;html=1;rounded=0;entryX=0;entryY=0.5;entryDx=0;entryDy=0;exitX=0.44;exitY=1.028;exitDx=0;exitDy=0;exitPerimeter=0;" parent="1" target="YAelynTICEoAhlKQ4TrA-35" edge="1" source="YAelynTICEoAhlKQ4TrA-4">
          <mxGeometry width="50" height="50" relative="1" as="geometry">
            <mxPoint x="460" y="370" as="sourcePoint" />
            <mxPoint x="510" y="320" as="targetPoint" />
            <Array as="points">
              <mxPoint x="110" y="640" />
            </Array>
          </mxGeometry>
        </mxCell>
        <mxCell id="YAelynTICEoAhlKQ4TrA-44" value="INCLUDE" style="text;html=1;strokeColor=none;fillColor=none;align=center;verticalAlign=middle;whiteSpace=wrap;rounded=0;" parent="1" vertex="1">
          <mxGeometry x="670" y="300" width="60" height="30" as="geometry" />
        </mxCell>
        <mxCell id="YAelynTICEoAhlKQ4TrA-45" value="WORKS_FOR" style="text;html=1;strokeColor=none;fillColor=none;align=center;verticalAlign=middle;whiteSpace=wrap;rounded=0;" parent="1" vertex="1">
          <mxGeometry x="405" y="65" width="60" height="30" as="geometry" />
        </mxCell>
        <mxCell id="YAelynTICEoAhlKQ4TrA-46" value="HAS" style="text;html=1;strokeColor=none;fillColor=none;align=center;verticalAlign=middle;whiteSpace=wrap;rounded=0;" parent="1" vertex="1">
          <mxGeometry x="405" y="625" width="60" height="25" as="geometry" />
        </mxCell>
        <mxCell id="YAelynTICEoAhlKQ4TrA-48" value="" style="rounded=0;whiteSpace=wrap;html=1;" parent="1" vertex="1">
          <mxGeometry x="365" y="230" width="120" height="60" as="geometry" />
        </mxCell>
        <mxCell id="J4taPpCmkkt1XiIRYGap-1" value="" style="ellipse;whiteSpace=wrap;html=1;" vertex="1" parent="1">
          <mxGeometry x="-20" y="2.5" width="80" height="25" as="geometry" />
        </mxCell>
        <mxCell id="J4taPpCmkkt1XiIRYGap-2" value="Lec_Id" style="text;html=1;strokeColor=none;fillColor=none;align=center;verticalAlign=middle;whiteSpace=wrap;rounded=0;fontStyle=4" vertex="1" parent="1">
          <mxGeometry x="-10" width="60" height="30" as="geometry" />
        </mxCell>
        <mxCell id="J4taPpCmkkt1XiIRYGap-5" value="" style="endArrow=none;html=1;rounded=0;entryX=0.5;entryY=1;entryDx=0;entryDy=0;" edge="1" parent="1" source="YAelynTICEoAhlKQ4TrA-1" target="J4taPpCmkkt1XiIRYGap-2">
          <mxGeometry width="50" height="50" relative="1" as="geometry">
            <mxPoint x="70" y="90" as="sourcePoint" />
            <mxPoint x="120" y="40" as="targetPoint" />
            <Array as="points">
              <mxPoint x="20" y="40" />
            </Array>
          </mxGeometry>
        </mxCell>
        <mxCell id="J4taPpCmkkt1XiIRYGap-6" value="" style="ellipse;whiteSpace=wrap;html=1;" vertex="1" parent="1">
          <mxGeometry x="65" y="2.5" width="80" height="25" as="geometry" />
        </mxCell>
        <mxCell id="J4taPpCmkkt1XiIRYGap-7" value="Lec_Name" style="text;html=1;strokeColor=none;fillColor=none;align=center;verticalAlign=middle;whiteSpace=wrap;rounded=0;fontStyle=0" vertex="1" parent="1">
          <mxGeometry x="75" width="60" height="30" as="geometry" />
        </mxCell>
        <mxCell id="J4taPpCmkkt1XiIRYGap-8" value="" style="endArrow=none;html=1;rounded=0;entryX=0.422;entryY=0.927;entryDx=0;entryDy=0;entryPerimeter=0;exitX=0.334;exitY=0.001;exitDx=0;exitDy=0;exitPerimeter=0;" edge="1" parent="1" source="YAelynTICEoAhlKQ4TrA-1" target="J4taPpCmkkt1XiIRYGap-7">
          <mxGeometry width="50" height="50" relative="1" as="geometry">
            <mxPoint x="219.5" y="47.5" as="sourcePoint" />
            <mxPoint x="180.5" y="27.5" as="targetPoint" />
          </mxGeometry>
        </mxCell>
        <mxCell id="J4taPpCmkkt1XiIRYGap-10" value="SUBJECT" style="text;html=1;strokeColor=none;fillColor=none;align=center;verticalAlign=middle;whiteSpace=wrap;rounded=0;" vertex="1" parent="1">
          <mxGeometry x="395" y="245" width="60" height="30" as="geometry" />
        </mxCell>
        <mxCell id="J4taPpCmkkt1XiIRYGap-11" value="" style="rhombus;whiteSpace=wrap;html=1;" vertex="1" parent="1">
          <mxGeometry x="530" y="180" width="80" height="80" as="geometry" />
        </mxCell>
        <mxCell id="J4taPpCmkkt1XiIRYGap-12" value="HAS" style="text;html=1;strokeColor=none;fillColor=none;align=center;verticalAlign=middle;whiteSpace=wrap;rounded=0;" vertex="1" parent="1">
          <mxGeometry x="540" y="205" width="60" height="30" as="geometry" />
        </mxCell>
        <mxCell id="J4taPpCmkkt1XiIRYGap-13" value="" style="endArrow=none;html=1;rounded=0;exitX=1;exitY=0.5;exitDx=0;exitDy=0;" edge="1" parent="1" source="J4taPpCmkkt1XiIRYGap-11">
          <mxGeometry width="50" height="50" relative="1" as="geometry">
            <mxPoint x="590" y="260" as="sourcePoint" />
            <mxPoint x="640" y="220" as="targetPoint" />
          </mxGeometry>
        </mxCell>
        <mxCell id="J4taPpCmkkt1XiIRYGap-14" value="" style="endArrow=none;html=1;rounded=0;exitX=1;exitY=0.5;exitDx=0;exitDy=0;" edge="1" parent="1" source="YAelynTICEoAhlKQ4TrA-48">
          <mxGeometry width="50" height="50" relative="1" as="geometry">
            <mxPoint x="480" y="270" as="sourcePoint" />
            <mxPoint x="530" y="220" as="targetPoint" />
            <Array as="points">
              <mxPoint x="530" y="260" />
            </Array>
          </mxGeometry>
        </mxCell>
        <mxCell id="J4taPpCmkkt1XiIRYGap-15" value="" style="rhombus;whiteSpace=wrap;html=1;" vertex="1" parent="1">
          <mxGeometry x="240" y="225" width="80" height="80" as="geometry" />
        </mxCell>
        <mxCell id="J4taPpCmkkt1XiIRYGap-16" value="HAS" style="text;html=1;strokeColor=none;fillColor=none;align=center;verticalAlign=middle;whiteSpace=wrap;rounded=0;" vertex="1" parent="1">
          <mxGeometry x="250" y="250" width="60" height="30" as="geometry" />
        </mxCell>
        <mxCell id="J4taPpCmkkt1XiIRYGap-17" value="" style="endArrow=none;html=1;rounded=0;exitX=1;exitY=0.5;exitDx=0;exitDy=0;entryX=-0.001;entryY=0.572;entryDx=0;entryDy=0;entryPerimeter=0;" edge="1" parent="1" source="J4taPpCmkkt1XiIRYGap-15" target="YAelynTICEoAhlKQ4TrA-48">
          <mxGeometry width="50" height="50" relative="1" as="geometry">
            <mxPoint x="300" y="310" as="sourcePoint" />
            <mxPoint x="360" y="265" as="targetPoint" />
          </mxGeometry>
        </mxCell>
        <mxCell id="J4taPpCmkkt1XiIRYGap-18" value="" style="endArrow=none;html=1;rounded=0;entryX=0;entryY=0.5;entryDx=0;entryDy=0;exitX=1;exitY=0;exitDx=0;exitDy=0;" edge="1" parent="1" source="YAelynTICEoAhlKQ4TrA-4" target="J4taPpCmkkt1XiIRYGap-15">
          <mxGeometry width="50" height="50" relative="1" as="geometry">
            <mxPoint x="190" y="315" as="sourcePoint" />
            <mxPoint x="240" y="265" as="targetPoint" />
            <Array as="points">
              <mxPoint x="240" y="340" />
            </Array>
          </mxGeometry>
        </mxCell>
        <mxCell id="J4taPpCmkkt1XiIRYGap-19" value="" style="rhombus;whiteSpace=wrap;html=1;" vertex="1" parent="1">
          <mxGeometry x="240" y="130" width="80" height="80" as="geometry" />
        </mxCell>
        <mxCell id="J4taPpCmkkt1XiIRYGap-20" value="HAS" style="text;html=1;strokeColor=none;fillColor=none;align=center;verticalAlign=middle;whiteSpace=wrap;rounded=0;" vertex="1" parent="1">
          <mxGeometry x="250" y="155" width="60" height="30" as="geometry" />
        </mxCell>
        <mxCell id="J4taPpCmkkt1XiIRYGap-21" value="" style="endArrow=none;html=1;rounded=0;exitX=1;exitY=0.5;exitDx=0;exitDy=0;entryX=0.527;entryY=-0.006;entryDx=0;entryDy=0;entryPerimeter=0;" edge="1" parent="1" source="J4taPpCmkkt1XiIRYGap-19" target="YAelynTICEoAhlKQ4TrA-48">
          <mxGeometry width="50" height="50" relative="1" as="geometry">
            <mxPoint x="345" y="180" as="sourcePoint" />
            <mxPoint x="395" y="130" as="targetPoint" />
            <Array as="points">
              <mxPoint x="430" y="170" />
            </Array>
          </mxGeometry>
        </mxCell>
        <mxCell id="J4taPpCmkkt1XiIRYGap-22" value="" style="endArrow=none;html=1;rounded=0;entryX=0;entryY=0.5;entryDx=0;entryDy=0;exitX=0.678;exitY=1.016;exitDx=0;exitDy=0;exitPerimeter=0;" edge="1" parent="1" source="YAelynTICEoAhlKQ4TrA-1" target="J4taPpCmkkt1XiIRYGap-19">
          <mxGeometry width="50" height="50" relative="1" as="geometry">
            <mxPoint x="140" y="220" as="sourcePoint" />
            <mxPoint x="190" y="170" as="targetPoint" />
            <Array as="points">
              <mxPoint x="141" y="170" />
            </Array>
          </mxGeometry>
        </mxCell>
        <mxCell id="J4taPpCmkkt1XiIRYGap-23" value="" style="rhombus;whiteSpace=wrap;html=1;" vertex="1" parent="1">
          <mxGeometry x="395" y="395" width="80" height="80" as="geometry" />
        </mxCell>
        <mxCell id="J4taPpCmkkt1XiIRYGap-24" value="ENROLL" style="text;html=1;strokeColor=none;fillColor=none;align=center;verticalAlign=middle;whiteSpace=wrap;rounded=0;" vertex="1" parent="1">
          <mxGeometry x="405" y="420" width="60" height="30" as="geometry" />
        </mxCell>
        <mxCell id="J4taPpCmkkt1XiIRYGap-25" value="" style="endArrow=none;html=1;rounded=0;entryX=0.577;entryY=1.012;entryDx=0;entryDy=0;entryPerimeter=0;exitX=0.5;exitY=0;exitDx=0;exitDy=0;" edge="1" parent="1" source="J4taPpCmkkt1XiIRYGap-23" target="YAelynTICEoAhlKQ4TrA-48">
          <mxGeometry width="50" height="50" relative="1" as="geometry">
            <mxPoint x="270" y="360" as="sourcePoint" />
            <mxPoint x="320" y="310" as="targetPoint" />
          </mxGeometry>
        </mxCell>
        <mxCell id="J4taPpCmkkt1XiIRYGap-26" value="" style="endArrow=none;html=1;rounded=0;exitX=1;exitY=0.5;exitDx=0;exitDy=0;entryX=0.25;entryY=0;entryDx=0;entryDy=0;" edge="1" parent="1" source="J4taPpCmkkt1XiIRYGap-23" target="YAelynTICEoAhlKQ4TrA-10">
          <mxGeometry width="50" height="50" relative="1" as="geometry">
            <mxPoint x="550" y="380" as="sourcePoint" />
            <mxPoint x="600" y="330" as="targetPoint" />
            <Array as="points">
              <mxPoint x="580" y="430" />
            </Array>
          </mxGeometry>
        </mxCell>
        <mxCell id="J4taPpCmkkt1XiIRYGap-27" value="" style="ellipse;whiteSpace=wrap;html=1;" vertex="1" parent="1">
          <mxGeometry x="150" y="2.5" width="80" height="25" as="geometry" />
        </mxCell>
        <mxCell id="J4taPpCmkkt1XiIRYGap-28" value="Lec_Email" style="text;html=1;strokeColor=none;fillColor=none;align=center;verticalAlign=middle;whiteSpace=wrap;rounded=0;fontStyle=0" vertex="1" parent="1">
          <mxGeometry x="160" width="60" height="30" as="geometry" />
        </mxCell>
        <mxCell id="J4taPpCmkkt1XiIRYGap-29" value="" style="endArrow=none;html=1;rounded=0;entryX=0.5;entryY=1;entryDx=0;entryDy=0;exitX=0.922;exitY=-0.01;exitDx=0;exitDy=0;exitPerimeter=0;" edge="1" parent="1" source="YAelynTICEoAhlKQ4TrA-1" target="J4taPpCmkkt1XiIRYGap-28">
          <mxGeometry width="50" height="50" relative="1" as="geometry">
            <mxPoint x="130" y="70" as="sourcePoint" />
            <mxPoint x="180" y="20" as="targetPoint" />
          </mxGeometry>
        </mxCell>
        <mxCell id="J4taPpCmkkt1XiIRYGap-31" value="" style="ellipse;whiteSpace=wrap;html=1;" vertex="1" parent="1">
          <mxGeometry x="325" y="312.5" width="80" height="25" as="geometry" />
        </mxCell>
        <mxCell id="J4taPpCmkkt1XiIRYGap-32" value="Sub_Code" style="text;html=1;strokeColor=none;fillColor=none;align=center;verticalAlign=middle;whiteSpace=wrap;rounded=0;fontStyle=4" vertex="1" parent="1">
          <mxGeometry x="335" y="310" width="60" height="30" as="geometry" />
        </mxCell>
        <mxCell id="J4taPpCmkkt1XiIRYGap-33" value="" style="endArrow=none;html=1;rounded=0;entryX=0.25;entryY=1;entryDx=0;entryDy=0;exitX=0.578;exitY=0.076;exitDx=0;exitDy=0;exitPerimeter=0;" edge="1" parent="1" source="J4taPpCmkkt1XiIRYGap-32" target="YAelynTICEoAhlKQ4TrA-48">
          <mxGeometry width="50" height="50" relative="1" as="geometry">
            <mxPoint x="350" y="330" as="sourcePoint" />
            <mxPoint x="400" y="280" as="targetPoint" />
          </mxGeometry>
        </mxCell>
        <mxCell id="J4taPpCmkkt1XiIRYGap-34" value="" style="ellipse;whiteSpace=wrap;html=1;" vertex="1" parent="1">
          <mxGeometry x="450" y="315" width="80" height="25" as="geometry" />
        </mxCell>
        <mxCell id="J4taPpCmkkt1XiIRYGap-35" value="Sub_Name" style="text;html=1;strokeColor=none;fillColor=none;align=center;verticalAlign=middle;whiteSpace=wrap;rounded=0;fontStyle=0" vertex="1" parent="1">
          <mxGeometry x="460" y="312.5" width="60" height="30" as="geometry" />
        </mxCell>
        <mxCell id="J4taPpCmkkt1XiIRYGap-36" value="" style="endArrow=none;html=1;rounded=0;entryX=0.825;entryY=0.994;entryDx=0;entryDy=0;entryPerimeter=0;exitX=0.5;exitY=0;exitDx=0;exitDy=0;" edge="1" parent="1" source="J4taPpCmkkt1XiIRYGap-35" target="YAelynTICEoAhlKQ4TrA-48">
          <mxGeometry width="50" height="50" relative="1" as="geometry">
            <mxPoint x="410" y="340" as="sourcePoint" />
            <mxPoint x="460" y="290" as="targetPoint" />
          </mxGeometry>
        </mxCell>
        <mxCell id="J4taPpCmkkt1XiIRYGap-37" value="" style="ellipse;whiteSpace=wrap;html=1;" vertex="1" parent="1">
          <mxGeometry x="-40" y="367.5" width="80" height="25" as="geometry" />
        </mxCell>
        <mxCell id="J4taPpCmkkt1XiIRYGap-38" value="Couse_Name" style="text;html=1;strokeColor=none;fillColor=none;align=center;verticalAlign=middle;whiteSpace=wrap;rounded=0;fontStyle=0" vertex="1" parent="1">
          <mxGeometry x="-30" y="365" width="60" height="30" as="geometry" />
        </mxCell>
        <mxCell id="J4taPpCmkkt1XiIRYGap-39" value="" style="ellipse;whiteSpace=wrap;html=1;" vertex="1" parent="1">
          <mxGeometry x="-20" y="307.5" width="80" height="25" as="geometry" />
        </mxCell>
        <mxCell id="J4taPpCmkkt1XiIRYGap-40" value="Couse_Id" style="text;html=1;strokeColor=none;fillColor=none;align=center;verticalAlign=middle;whiteSpace=wrap;rounded=0;fontStyle=0" vertex="1" parent="1">
          <mxGeometry x="-10" y="305" width="60" height="30" as="geometry" />
        </mxCell>
        <mxCell id="J4taPpCmkkt1XiIRYGap-41" value="" style="endArrow=none;html=1;rounded=0;exitX=0.541;exitY=0.948;exitDx=0;exitDy=0;exitPerimeter=0;entryX=0.006;entryY=0.369;entryDx=0;entryDy=0;entryPerimeter=0;" edge="1" parent="1" source="J4taPpCmkkt1XiIRYGap-40" target="YAelynTICEoAhlKQ4TrA-4">
          <mxGeometry width="50" height="50" relative="1" as="geometry">
            <mxPoint x="10" y="360" as="sourcePoint" />
            <mxPoint x="60" y="310" as="targetPoint" />
          </mxGeometry>
        </mxCell>
        <mxCell id="J4taPpCmkkt1XiIRYGap-43" value="" style="endArrow=none;html=1;rounded=0;exitX=1;exitY=0.5;exitDx=0;exitDy=0;entryX=-0.006;entryY=0.661;entryDx=0;entryDy=0;entryPerimeter=0;" edge="1" parent="1" source="J4taPpCmkkt1XiIRYGap-37" target="YAelynTICEoAhlKQ4TrA-4">
          <mxGeometry width="50" height="50" relative="1" as="geometry">
            <mxPoint x="10" y="390" as="sourcePoint" />
            <mxPoint x="60" y="340" as="targetPoint" />
          </mxGeometry>
        </mxCell>
        <mxCell id="J4taPpCmkkt1XiIRYGap-47" value="" style="ellipse;whiteSpace=wrap;html=1;" vertex="1" parent="1">
          <mxGeometry x="-60" y="67.5" width="80" height="25" as="geometry" />
        </mxCell>
        <mxCell id="J4taPpCmkkt1XiIRYGap-48" value="Mobile_Num" style="text;html=1;strokeColor=none;fillColor=none;align=center;verticalAlign=middle;whiteSpace=wrap;rounded=0;fontStyle=0" vertex="1" parent="1">
          <mxGeometry x="-50" y="65" width="60" height="30" as="geometry" />
        </mxCell>
        <mxCell id="J4taPpCmkkt1XiIRYGap-49" value="" style="endArrow=none;html=1;rounded=0;exitX=1;exitY=0.5;exitDx=0;exitDy=0;entryX=0;entryY=0.5;entryDx=0;entryDy=0;" edge="1" parent="1" source="J4taPpCmkkt1XiIRYGap-47" target="YAelynTICEoAhlKQ4TrA-1">
          <mxGeometry width="50" height="50" relative="1" as="geometry">
            <mxPoint x="110" y="120" as="sourcePoint" />
            <mxPoint x="160" y="70" as="targetPoint" />
          </mxGeometry>
        </mxCell>
        <mxCell id="J4taPpCmkkt1XiIRYGap-50" value="" style="ellipse;whiteSpace=wrap;html=1;" vertex="1" parent="1">
          <mxGeometry x="780" y="157.5" width="80" height="25" as="geometry" />
        </mxCell>
        <mxCell id="J4taPpCmkkt1XiIRYGap-51" value="Num_Of_Stu" style="text;html=1;strokeColor=none;fillColor=none;align=center;verticalAlign=middle;whiteSpace=wrap;rounded=0;fontStyle=0" vertex="1" parent="1">
          <mxGeometry x="790" y="155" width="60" height="30" as="geometry" />
        </mxCell>
        <mxCell id="J4taPpCmkkt1XiIRYGap-52" value="" style="endArrow=none;html=1;rounded=0;exitX=0.921;exitY=-0.005;exitDx=0;exitDy=0;entryX=0;entryY=0.5;entryDx=0;entryDy=0;exitPerimeter=0;" edge="1" parent="1" source="YAelynTICEoAhlKQ4TrA-27" target="J4taPpCmkkt1XiIRYGap-50">
          <mxGeometry width="50" height="50" relative="1" as="geometry">
            <mxPoint x="800" y="165" as="sourcePoint" />
            <mxPoint x="860" y="135" as="targetPoint" />
            <Array as="points">
              <mxPoint x="770" y="180" />
            </Array>
          </mxGeometry>
        </mxCell>
        <mxCell id="J4taPpCmkkt1XiIRYGap-53" value="" style="ellipse;whiteSpace=wrap;html=1;" vertex="1" parent="1">
          <mxGeometry x="590" y="132.5" width="80" height="25" as="geometry" />
        </mxCell>
        <mxCell id="J4taPpCmkkt1XiIRYGap-54" value="Dep_Id" style="text;html=1;strokeColor=none;fillColor=none;align=center;verticalAlign=middle;whiteSpace=wrap;rounded=0;fontStyle=0" vertex="1" parent="1">
          <mxGeometry x="600" y="130" width="60" height="30" as="geometry" />
        </mxCell>
        <mxCell id="J4taPpCmkkt1XiIRYGap-55" value="" style="endArrow=none;html=1;rounded=0;entryX=0.003;entryY=0.163;entryDx=0;entryDy=0;entryPerimeter=0;" edge="1" parent="1" source="J4taPpCmkkt1XiIRYGap-54" target="YAelynTICEoAhlKQ4TrA-27">
          <mxGeometry width="50" height="50" relative="1" as="geometry">
            <mxPoint x="710" y="260" as="sourcePoint" />
            <mxPoint x="760" y="210" as="targetPoint" />
          </mxGeometry>
        </mxCell>
        <mxCell id="J4taPpCmkkt1XiIRYGap-56" value="" style="ellipse;whiteSpace=wrap;html=1;" vertex="1" parent="1">
          <mxGeometry x="730" y="387.5" width="80" height="25" as="geometry" />
        </mxCell>
        <mxCell id="J4taPpCmkkt1XiIRYGap-57" value="Stu_Id" style="text;html=1;strokeColor=none;fillColor=none;align=center;verticalAlign=middle;whiteSpace=wrap;rounded=0;fontStyle=0" vertex="1" parent="1">
          <mxGeometry x="740" y="385" width="60" height="30" as="geometry" />
        </mxCell>
        <mxCell id="J4taPpCmkkt1XiIRYGap-58" value="" style="ellipse;whiteSpace=wrap;html=1;" vertex="1" parent="1">
          <mxGeometry x="590" y="385" width="80" height="25" as="geometry" />
        </mxCell>
        <mxCell id="J4taPpCmkkt1XiIRYGap-59" value="Stu_Name" style="text;html=1;strokeColor=none;fillColor=none;align=center;verticalAlign=middle;whiteSpace=wrap;rounded=0;fontStyle=0" vertex="1" parent="1">
          <mxGeometry x="600" y="382.5" width="60" height="30" as="geometry" />
        </mxCell>
        <mxCell id="J4taPpCmkkt1XiIRYGap-60" value="" style="ellipse;whiteSpace=wrap;html=1;" vertex="1" parent="1">
          <mxGeometry x="740" y="512.5" width="100" height="25" as="geometry" />
        </mxCell>
        <mxCell id="J4taPpCmkkt1XiIRYGap-61" value="Registerd_Year" style="text;html=1;strokeColor=none;fillColor=none;align=center;verticalAlign=middle;whiteSpace=wrap;rounded=0;fontStyle=0" vertex="1" parent="1">
          <mxGeometry x="760" y="510" width="60" height="30" as="geometry" />
        </mxCell>
        <mxCell id="J4taPpCmkkt1XiIRYGap-62" value="" style="endArrow=none;html=1;rounded=0;entryX=0.483;entryY=0.953;entryDx=0;entryDy=0;exitX=1;exitY=0;exitDx=0;exitDy=0;entryPerimeter=0;" edge="1" parent="1" source="YAelynTICEoAhlKQ4TrA-10" target="J4taPpCmkkt1XiIRYGap-57">
          <mxGeometry width="50" height="50" relative="1" as="geometry">
            <mxPoint x="650" y="490" as="sourcePoint" />
            <mxPoint x="770" y="420" as="targetPoint" />
          </mxGeometry>
        </mxCell>
        <mxCell id="J4taPpCmkkt1XiIRYGap-63" value="" style="endArrow=none;html=1;rounded=0;exitX=0.667;exitY=0.917;exitDx=0;exitDy=0;entryX=0.25;entryY=0;entryDx=0;entryDy=0;exitPerimeter=0;" edge="1" parent="1" source="J4taPpCmkkt1XiIRYGap-59" target="YAelynTICEoAhlKQ4TrA-10">
          <mxGeometry width="50" height="50" relative="1" as="geometry">
            <mxPoint x="640" y="420" as="sourcePoint" />
            <mxPoint x="720" y="390" as="targetPoint" />
          </mxGeometry>
        </mxCell>
        <mxCell id="J4taPpCmkkt1XiIRYGap-64" value="" style="endArrow=none;html=1;rounded=0;entryX=0.75;entryY=1;entryDx=0;entryDy=0;exitX=0.532;exitY=0.038;exitDx=0;exitDy=0;exitPerimeter=0;" edge="1" parent="1" source="J4taPpCmkkt1XiIRYGap-61" target="YAelynTICEoAhlKQ4TrA-10">
          <mxGeometry width="50" height="50" relative="1" as="geometry">
            <mxPoint x="760" y="510" as="sourcePoint" />
            <mxPoint x="810" y="460" as="targetPoint" />
          </mxGeometry>
        </mxCell>
        <mxCell id="J4taPpCmkkt1XiIRYGap-65" value="" style="ellipse;whiteSpace=wrap;html=1;" vertex="1" parent="1">
          <mxGeometry x="-5" y="422.5" width="80" height="25" as="geometry" />
        </mxCell>
        <mxCell id="J4taPpCmkkt1XiIRYGap-66" value="Semester" style="text;html=1;strokeColor=none;fillColor=none;align=center;verticalAlign=middle;whiteSpace=wrap;rounded=0;fontStyle=0" vertex="1" parent="1">
          <mxGeometry x="5" y="420" width="60" height="30" as="geometry" />
        </mxCell>
        <mxCell id="J4taPpCmkkt1XiIRYGap-67" value="" style="endArrow=none;html=1;rounded=0;exitX=0.543;exitY=0.038;exitDx=0;exitDy=0;exitPerimeter=0;entryX=0;entryY=1;entryDx=0;entryDy=0;" edge="1" parent="1" source="J4taPpCmkkt1XiIRYGap-66" target="YAelynTICEoAhlKQ4TrA-4">
          <mxGeometry width="50" height="50" relative="1" as="geometry">
            <mxPoint x="-30" y="420" as="sourcePoint" />
            <mxPoint x="20" y="370" as="targetPoint" />
          </mxGeometry>
        </mxCell>
      </root>
    </mxGraphModel>
  </diagram>
</mxfile>
